<svg width="357" height="19" viewBox="0 0 357 19" fill="none" xmlns="http://www.w3.org/2000/svg">
<path d="M8.50568 0.545454H12.1534V12.7159C12.1534 13.8409 11.9006 14.8182 11.3949 15.6477C10.8949 16.4773 10.1989 17.1165 9.30682 17.5653C8.41477 18.0142 7.37784 18.2386 6.19602 18.2386C5.14489 18.2386 4.19034 18.054 3.33239 17.6847C2.48011 17.3097 1.80398 16.7415 1.30398 15.9801C0.803977 15.2131 0.556818 14.25 0.5625 13.0909H4.2358C4.24716 13.5511 4.34091 13.946 4.51705 14.2756C4.69886 14.5994 4.94602 14.8494 5.25852 15.0256C5.5767 15.196 5.9517 15.2812 6.38352 15.2812C6.83807 15.2812 7.22159 15.1847 7.53409 14.9915C7.85227 14.7926 8.09375 14.5028 8.25852 14.1222C8.4233 13.7415 8.50568 13.2727 8.50568 12.7159V0.545454ZM25.9858 0.545454H29.6761V11.8807C29.6761 13.1534 29.3722 14.267 28.7642 15.2216C28.1619 16.1761 27.3182 16.9205 26.233 17.4545C25.1477 17.983 23.8835 18.2472 22.4403 18.2472C20.9915 18.2472 19.7244 17.983 18.6392 17.4545C17.554 16.9205 16.7102 16.1761 16.108 15.2216C15.5057 14.267 15.2045 13.1534 15.2045 11.8807V0.545454H18.8949V11.5653C18.8949 12.2301 19.0398 12.821 19.3295 13.3381C19.625 13.8551 20.0398 14.2614 20.5739 14.5568C21.108 14.8523 21.7301 15 22.4403 15C23.1563 15 23.7784 14.8523 24.3068 14.5568C24.8409 14.2614 25.2528 13.8551 25.5426 13.3381C25.8381 12.821 25.9858 12.2301 25.9858 11.5653V0.545454ZM47.3118 0.545454V18H44.1243L36.5305 7.0142H36.4027V18H32.7124V0.545454H35.951L43.4851 11.5227H43.6385V0.545454H47.3118ZM54.0511 0.545454V18H50.3608V0.545454H54.0511ZM73.1271 9.27273C73.1271 11.1761 72.7663 12.7955 72.0447 14.1307C71.3288 15.4659 70.3516 16.4858 69.1129 17.1903C67.88 17.8892 66.4936 18.2386 64.9538 18.2386C63.4027 18.2386 62.0107 17.8864 60.7777 17.1818C59.5447 16.4773 58.5703 15.4574 57.8544 14.1222C57.1385 12.7869 56.7805 11.1705 56.7805 9.27273C56.7805 7.36932 57.1385 5.75 57.8544 4.41477C58.5703 3.07955 59.5447 2.0625 60.7777 1.36364C62.0107 0.659091 63.4027 0.306818 64.9538 0.306818C66.4936 0.306818 67.88 0.659091 69.1129 1.36364C70.3516 2.0625 71.3288 3.07955 72.0447 4.41477C72.7663 5.75 73.1271 7.36932 73.1271 9.27273ZM69.3857 9.27273C69.3857 8.03977 69.201 7 68.8317 6.15341C68.468 5.30682 67.9538 4.66477 67.2891 4.22727C66.6243 3.78977 65.8459 3.57102 64.9538 3.57102C64.0618 3.57102 63.2834 3.78977 62.6186 4.22727C61.9538 4.66477 61.4368 5.30682 61.0675 6.15341C60.7038 7 60.522 8.03977 60.522 9.27273C60.522 10.5057 60.7038 11.5455 61.0675 12.392C61.4368 13.2386 61.9538 13.8807 62.6186 14.3182C63.2834 14.7557 64.0618 14.9744 64.9538 14.9744C65.8459 14.9744 66.6243 14.7557 67.2891 14.3182C67.9538 13.8807 68.468 13.2386 68.8317 12.392C69.201 11.5455 69.3857 10.5057 69.3857 9.27273ZM75.8608 18V0.545454H82.7472C84.0653 0.545454 85.1903 0.78125 86.1222 1.25284C87.0597 1.71875 87.7727 2.38068 88.2614 3.23864C88.7557 4.09091 89.0028 5.09375 89.0028 6.24716C89.0028 7.40625 88.7528 8.40341 88.2528 9.23864C87.7528 10.0682 87.0284 10.7045 86.0795 11.1477C85.1364 11.5909 83.9943 11.8125 82.6534 11.8125H78.0426V8.84659H82.0568C82.7614 8.84659 83.3466 8.75 83.8125 8.55682C84.2784 8.36364 84.625 8.07386 84.8523 7.6875C85.0852 7.30114 85.2017 6.82102 85.2017 6.24716C85.2017 5.66761 85.0852 5.17898 84.8523 4.78125C84.625 4.38352 84.2756 4.08239 83.804 3.87784C83.3381 3.66761 82.75 3.5625 82.0398 3.5625H79.5511V18H75.8608ZM85.2869 10.0568L89.625 18H85.5511L81.3068 10.0568H85.2869ZM106.634 5.56534C106.566 4.87784 106.273 4.34375 105.756 3.96307C105.239 3.58239 104.538 3.39204 103.651 3.39204C103.049 3.39204 102.54 3.47727 102.126 3.64773C101.711 3.8125 101.393 4.04261 101.171 4.33807C100.955 4.63352 100.847 4.96875 100.847 5.34375C100.836 5.65625 100.901 5.92898 101.043 6.16193C101.191 6.39489 101.393 6.59659 101.648 6.76705C101.904 6.93182 102.2 7.0767 102.535 7.2017C102.87 7.32102 103.228 7.4233 103.609 7.50852L105.177 7.88352C105.938 8.05398 106.637 8.28125 107.273 8.56534C107.91 8.84943 108.461 9.19886 108.927 9.61364C109.393 10.0284 109.754 10.517 110.009 11.0795C110.271 11.642 110.404 12.2869 110.41 13.0142C110.404 14.0824 110.131 15.0085 109.592 15.7926C109.058 16.571 108.285 17.1761 107.273 17.608C106.268 18.0341 105.055 18.2472 103.634 18.2472C102.225 18.2472 100.998 18.0312 99.9524 17.5994C98.9126 17.1676 98.1001 16.5284 97.5149 15.6818C96.9354 14.8295 96.6314 13.7756 96.603 12.5199H100.174C100.214 13.1051 100.381 13.5937 100.677 13.9858C100.978 14.3722 101.379 14.6648 101.879 14.8636C102.384 15.0568 102.955 15.1534 103.592 15.1534C104.217 15.1534 104.759 15.0625 105.219 14.8807C105.685 14.6989 106.046 14.446 106.302 14.1222C106.558 13.7983 106.685 13.4261 106.685 13.0057C106.685 12.6136 106.569 12.2841 106.336 12.017C106.109 11.75 105.773 11.5227 105.33 11.3352C104.893 11.1477 104.356 10.9773 103.719 10.8239L101.819 10.3466C100.347 9.98864 99.1854 9.42898 98.3331 8.66761C97.4808 7.90625 97.0575 6.88068 97.0632 5.59091C97.0575 4.53409 97.3388 3.6108 97.907 2.82102C98.4808 2.03125 99.2678 1.41477 100.268 0.971591C101.268 0.528409 102.404 0.306818 103.677 0.306818C104.972 0.306818 106.103 0.528409 107.069 0.971591C108.04 1.41477 108.796 2.03125 109.336 2.82102C109.876 3.6108 110.154 4.52557 110.171 5.56534H106.634ZM128.932 9.27273C128.932 11.1761 128.571 12.7955 127.849 14.1307C127.134 15.4659 126.156 16.4858 124.918 17.1903C123.685 17.8892 122.298 18.2386 120.759 18.2386C119.207 18.2386 117.815 17.8864 116.582 17.1818C115.349 16.4773 114.375 15.4574 113.659 14.1222C112.943 12.7869 112.585 11.1705 112.585 9.27273C112.585 7.36932 112.943 5.75 113.659 4.41477C114.375 3.07955 115.349 2.0625 116.582 1.36364C117.815 0.659091 119.207 0.306818 120.759 0.306818C122.298 0.306818 123.685 0.659091 124.918 1.36364C126.156 2.0625 127.134 3.07955 127.849 4.41477C128.571 5.75 128.932 7.36932 128.932 9.27273ZM125.19 9.27273C125.19 8.03977 125.006 7 124.636 6.15341C124.273 5.30682 123.759 4.66477 123.094 4.22727C122.429 3.78977 121.651 3.57102 120.759 3.57102C119.866 3.57102 119.088 3.78977 118.423 4.22727C117.759 4.66477 117.241 5.30682 116.872 6.15341C116.509 7 116.327 8.03977 116.327 9.27273C116.327 10.5057 116.509 11.5455 116.872 12.392C117.241 13.2386 117.759 13.8807 118.423 14.3182C119.088 14.7557 119.866 14.9744 120.759 14.9744C121.651 14.9744 122.429 14.7557 123.094 14.3182C123.759 13.8807 124.273 13.2386 124.636 12.392C125.006 11.5455 125.19 10.5057 125.19 9.27273ZM131.665 18V0.545454H143.222V3.58807H135.356V7.74716H142.455V10.7898H135.356V18H131.665ZM145.04 3.58807V0.545454H159.375V3.58807H154.031V18H150.384V3.58807H145.04ZM165.665 18L160.67 0.545454H164.702L167.591 12.6733H167.736L170.923 0.545454H174.375L177.554 12.6989H177.707L180.597 0.545454H184.628L179.634 18H176.037L172.713 6.58807H172.577L169.261 18H165.665ZM187.854 18H183.899L189.925 0.545454H194.68L200.697 18H196.743L192.371 4.53409H192.234L187.854 18ZM187.607 11.1392H196.947V14.0199H187.607V11.1392ZM202.798 18V0.545454H209.685C211.003 0.545454 212.128 0.78125 213.06 1.25284C213.997 1.71875 214.71 2.38068 215.199 3.23864C215.693 4.09091 215.94 5.09375 215.94 6.24716C215.94 7.40625 215.69 8.40341 215.19 9.23864C214.69 10.0682 213.966 10.7045 213.017 11.1477C212.074 11.5909 210.932 11.8125 209.591 11.8125H204.98V8.84659H208.994C209.699 8.84659 210.284 8.75 210.75 8.55682C211.216 8.36364 211.563 8.07386 211.79 7.6875C212.023 7.30114 212.139 6.82102 212.139 6.24716C212.139 5.66761 212.023 5.17898 211.79 4.78125C211.563 4.38352 211.213 4.08239 210.741 3.87784C210.276 3.66761 209.688 3.5625 208.977 3.5625H206.489V18H202.798ZM212.224 10.0568L216.562 18H212.489L208.244 10.0568H212.224ZM218.548 18V0.545454H230.31V3.58807H222.239V7.74716H229.705V10.7898H222.239V14.9574H230.344V18H218.548ZM238.798 18V0.545454H250.56V3.58807H242.489V7.74716H249.955V10.7898H242.489V14.9574H250.594V18H238.798ZM268.093 0.545454V18H264.906L257.312 7.0142H257.184V18H253.494V0.545454H256.732L264.266 11.5227H264.42V0.545454H268.093ZM282.716 6.1875C282.597 5.77273 282.429 5.40625 282.213 5.08807C281.997 4.7642 281.733 4.49148 281.42 4.26989C281.114 4.04261 280.761 3.86932 280.364 3.75C279.972 3.63068 279.537 3.57102 279.06 3.57102C278.168 3.57102 277.384 3.79261 276.707 4.23579C276.037 4.67898 275.514 5.32386 275.139 6.17045C274.764 7.01136 274.577 8.03977 274.577 9.25568C274.577 10.4716 274.761 11.5057 275.131 12.358C275.5 13.2102 276.023 13.8608 276.699 14.3097C277.375 14.7528 278.173 14.9744 279.094 14.9744C279.929 14.9744 280.642 14.8267 281.233 14.5312C281.83 14.2301 282.284 13.8068 282.597 13.2614C282.915 12.7159 283.074 12.071 283.074 11.3267L283.824 11.4375H279.324V8.65909H286.628V10.858C286.628 12.392 286.304 13.7102 285.656 14.8125C285.009 15.9091 284.116 16.7557 282.98 17.3523C281.844 17.9432 280.543 18.2386 279.077 18.2386C277.44 18.2386 276.003 17.8778 274.764 17.1562C273.526 16.429 272.56 15.3977 271.866 14.0625C271.179 12.7216 270.835 11.1307 270.835 9.28977C270.835 7.875 271.04 6.61364 271.449 5.50568C271.864 4.39205 272.443 3.44886 273.188 2.67614C273.932 1.90341 274.798 1.31534 275.787 0.911931C276.776 0.508522 277.847 0.306818 279 0.306818C279.989 0.306818 280.909 0.451704 281.761 0.741477C282.614 1.02557 283.369 1.42898 284.028 1.9517C284.693 2.47443 285.236 3.09659 285.656 3.81818C286.077 4.53409 286.347 5.32386 286.466 6.1875H282.716ZM293.09 0.545454V18H289.4V0.545454H293.09ZM310.726 0.545454V18H307.538L299.945 7.0142H299.817V18H296.126V0.545454H299.365L306.899 11.5227H307.053V0.545454H310.726ZM313.775 18V0.545454H325.536V3.58807H317.465V7.74716H324.931V10.7898H317.465V14.9574H325.57V18H313.775ZM328.47 18V0.545454H340.232V3.58807H332.161V7.74716H339.626V10.7898H332.161V14.9574H340.266V18H328.47ZM343.165 18V0.545454H350.052C351.37 0.545454 352.495 0.78125 353.427 1.25284C354.364 1.71875 355.077 2.38068 355.566 3.23864C356.06 4.09091 356.308 5.09375 356.308 6.24716C356.308 7.40625 356.058 8.40341 355.558 9.23864C355.058 10.0682 354.333 10.7045 353.384 11.1477C352.441 11.5909 351.299 11.8125 349.958 11.8125H345.347V8.84659H349.362C350.066 8.84659 350.651 8.75 351.117 8.55682C351.583 8.36364 351.93 8.07386 352.157 7.6875C352.39 7.30114 352.506 6.82102 352.506 6.24716C352.506 5.66761 352.39 5.17898 352.157 4.78125C351.93 4.38352 351.58 4.08239 351.109 3.87784C350.643 3.66761 350.055 3.5625 349.344 3.5625H346.856V18H343.165ZM352.592 10.0568L356.93 18H352.856L348.612 10.0568H352.592Z" fill="white"/>
</svg>
