<svg width="880" height="19" viewBox="0 0 880 19" fill="none" xmlns="http://www.w3.org/2000/svg">
<path d="M4.65103 18H0.696481L6.72205 0.545454H11.4777L17.4948 18H13.5402L9.16807 4.53409H9.03171L4.65103 18ZM4.40387 11.1392H13.7448V14.0199H4.40387V11.1392ZM25.3556 18V0.545454H32.3443C33.6284 0.545454 34.6994 0.735795 35.5573 1.11648C36.4153 1.49716 37.0602 2.02557 37.492 2.7017C37.9238 3.37216 38.1397 4.14489 38.1397 5.01989C38.1397 5.7017 38.0034 6.30114 37.7306 6.81818C37.4579 7.32955 37.0829 7.75 36.6056 8.07955C36.134 8.40341 35.5943 8.63352 34.9863 8.76989V8.94034C35.6511 8.96875 36.2732 9.15625 36.8528 9.50284C37.438 9.84943 37.9124 10.3352 38.2761 10.9602C38.6397 11.5795 38.8215 12.3182 38.8215 13.1761C38.8215 14.1023 38.5914 14.929 38.1312 15.6562C37.6767 16.3778 37.0034 16.9489 36.1113 17.3693C35.2193 17.7898 34.1198 18 32.813 18H25.3556ZM29.046 14.983H32.0545C33.0829 14.983 33.8329 14.7869 34.3045 14.3949C34.7761 13.9972 35.0119 13.4687 35.0119 12.8097C35.0119 12.3267 34.8954 11.9006 34.6624 11.5312C34.4295 11.1619 34.0971 10.8722 33.6653 10.6619C33.2392 10.4517 32.7306 10.3466 32.1397 10.3466H29.046V14.983ZM29.046 7.84943H31.7818C32.2874 7.84943 32.7363 7.76136 33.1284 7.58523C33.5261 7.40341 33.8386 7.14773 34.0659 6.81818C34.2988 6.48864 34.4153 6.09375 34.4153 5.63352C34.4153 5.00284 34.1909 4.49432 33.742 4.10795C33.2988 3.72159 32.6681 3.52841 31.8499 3.52841H29.046V7.84943ZM63.0226 9.27273C63.0226 11.1761 62.6618 12.7955 61.9402 14.1307C61.2243 15.4659 60.247 16.4858 59.0084 17.1903C57.7754 17.8892 56.3891 18.2386 54.8493 18.2386C53.2982 18.2386 51.9061 17.8864 50.6732 17.1818C49.4402 16.4773 48.4658 15.4574 47.7499 14.1222C47.034 12.7869 46.676 11.1705 46.676 9.27273C46.676 7.36932 47.034 5.75 47.7499 4.41477C48.4658 3.07955 49.4402 2.0625 50.6732 1.36364C51.9061 0.659091 53.2982 0.306818 54.8493 0.306818C56.3891 0.306818 57.7754 0.659091 59.0084 1.36364C60.247 2.0625 61.2243 3.07955 61.9402 4.41477C62.6618 5.75 63.0226 7.36932 63.0226 9.27273ZM59.2811 9.27273C59.2811 8.03977 59.0965 7 58.7271 6.15341C58.3635 5.30682 57.8493 4.66477 57.1845 4.22727C56.5197 3.78977 55.7413 3.57102 54.8493 3.57102C53.9572 3.57102 53.1788 3.78977 52.5141 4.22727C51.8493 4.66477 51.3322 5.30682 50.9629 6.15341C50.5993 7 50.4175 8.03977 50.4175 9.27273C50.4175 10.5057 50.5993 11.5455 50.9629 12.392C51.3322 13.2386 51.8493 13.8807 52.5141 14.3182C53.1788 14.7557 53.9572 14.9744 54.8493 14.9744C55.7413 14.9744 56.5197 14.7557 57.1845 14.3182C57.8493 13.8807 58.3635 13.2386 58.7271 12.392C59.0965 11.5455 59.2811 10.5057 59.2811 9.27273ZM82.2975 0.545454H85.9878V11.8807C85.9878 13.1534 85.6839 14.267 85.0759 15.2216C84.4736 16.1761 83.6299 16.9205 82.5447 17.4545C81.4594 17.983 80.1952 18.2472 78.752 18.2472C77.3032 18.2472 76.0361 17.983 74.9509 17.4545C73.8657 16.9205 73.0219 16.1761 72.4197 15.2216C71.8174 14.267 71.5163 13.1534 71.5163 11.8807V0.545454H75.2066V11.5653C75.2066 12.2301 75.3515 12.821 75.6413 13.3381C75.9367 13.8551 76.3515 14.2614 76.8856 14.5568C77.4197 14.8523 78.0418 15 78.752 15C79.468 15 80.0901 14.8523 80.6185 14.5568C81.1526 14.2614 81.5645 13.8551 81.8543 13.3381C82.1498 12.821 82.2975 12.2301 82.2975 11.5653V0.545454ZM94.1193 3.58807V0.545454H108.455V3.58807H103.111V18H99.463V3.58807H94.1193ZM161.834 18V0.545454H168.72C170.044 0.545454 171.172 0.798295 172.104 1.30398C173.036 1.80398 173.746 2.5 174.235 3.39204C174.729 4.27841 174.976 5.30114 174.976 6.46023C174.976 7.61932 174.726 8.64205 174.226 9.52841C173.726 10.4148 173.002 11.1051 172.053 11.5994C171.11 12.0937 169.968 12.3409 168.627 12.3409H164.237V9.38352H168.03C168.74 9.38352 169.326 9.26136 169.786 9.01705C170.252 8.76705 170.598 8.4233 170.826 7.9858C171.058 7.54261 171.175 7.03409 171.175 6.46023C171.175 5.88068 171.058 5.375 170.826 4.94318C170.598 4.50568 170.252 4.16761 169.786 3.92898C169.32 3.68466 168.729 3.5625 168.013 3.5625H165.524V18H161.834ZM183.133 18V0.545454H190.019C191.338 0.545454 192.463 0.78125 193.394 1.25284C194.332 1.71875 195.045 2.38068 195.534 3.23864C196.028 4.09091 196.275 5.09375 196.275 6.24716C196.275 7.40625 196.025 8.40341 195.525 9.23864C195.025 10.0682 194.301 10.7045 193.352 11.1477C192.409 11.5909 191.267 11.8125 189.926 11.8125H185.315V8.84659H189.329C190.034 8.84659 190.619 8.75 191.085 8.55682C191.551 8.36364 191.897 8.07386 192.125 7.6875C192.358 7.30114 192.474 6.82102 192.474 6.24716C192.474 5.66761 192.358 5.17898 192.125 4.78125C191.897 4.38352 191.548 4.08239 191.076 3.87784C190.61 3.66761 190.022 3.5625 189.312 3.5625H186.823V18H183.133ZM192.559 10.0568L196.897 18H192.823L188.579 10.0568H192.559ZM220.683 9.27273C220.683 11.1761 220.322 12.7955 219.601 14.1307C218.885 15.4659 217.907 16.4858 216.669 17.1903C215.436 17.8892 214.049 18.2386 212.51 18.2386C210.958 18.2386 209.566 17.8864 208.333 17.1818C207.101 16.4773 206.126 15.4574 205.41 14.1222C204.694 12.7869 204.336 11.1705 204.336 9.27273C204.336 7.36932 204.694 5.75 205.41 4.41477C206.126 3.07955 207.101 2.0625 208.333 1.36364C209.566 0.659091 210.958 0.306818 212.51 0.306818C214.049 0.306818 215.436 0.659091 216.669 1.36364C217.907 2.0625 218.885 3.07955 219.601 4.41477C220.322 5.75 220.683 7.36932 220.683 9.27273ZM216.941 9.27273C216.941 8.03977 216.757 7 216.387 6.15341C216.024 5.30682 215.51 4.66477 214.845 4.22727C214.18 3.78977 213.402 3.57102 212.51 3.57102C211.618 3.57102 210.839 3.78977 210.174 4.22727C209.51 4.66477 208.993 5.30682 208.623 6.15341C208.26 7 208.078 8.03977 208.078 9.27273C208.078 10.5057 208.26 11.5455 208.623 12.392C208.993 13.2386 209.51 13.8807 210.174 14.3182C210.839 14.7557 211.618 14.9744 212.51 14.9744C213.402 14.9744 214.18 14.7557 214.845 14.3182C215.51 13.8807 216.024 13.2386 216.387 12.392C216.757 11.5455 216.941 10.5057 216.941 9.27273ZM236.165 0.545454H239.813V12.7159C239.813 13.8409 239.56 14.8182 239.054 15.6477C238.554 16.4773 237.858 17.1165 236.966 17.5653C236.074 18.0142 235.037 18.2386 233.856 18.2386C232.804 18.2386 231.85 18.054 230.992 17.6847C230.14 17.3097 229.463 16.7415 228.963 15.9801C228.463 15.2131 228.216 14.25 228.222 13.0909H231.895C231.907 13.5511 232 13.946 232.177 14.2756C232.358 14.5994 232.606 14.8494 232.918 15.0256C233.236 15.196 233.611 15.2812 234.043 15.2812C234.498 15.2812 234.881 15.1847 235.194 14.9915C235.512 14.7926 235.753 14.5028 235.918 14.1222C236.083 13.7415 236.165 13.2727 236.165 12.7159V0.545454ZM248.624 18V0.545454H260.385V3.58807H252.314V7.74716H259.78V10.7898H252.314V14.9574H260.42V18H248.624ZM284.48 6.65625H280.747C280.679 6.1733 280.54 5.74432 280.329 5.36932C280.119 4.98864 279.849 4.66477 279.52 4.39773C279.19 4.13068 278.81 3.92614 278.378 3.78409C277.952 3.64205 277.488 3.57102 276.988 3.57102C276.085 3.57102 275.298 3.79545 274.628 4.24432C273.957 4.6875 273.437 5.33523 273.068 6.1875C272.699 7.03409 272.514 8.0625 272.514 9.27273C272.514 10.517 272.699 11.5625 273.068 12.4091C273.443 13.2557 273.966 13.8949 274.636 14.3267C275.307 14.7585 276.082 14.9744 276.963 14.9744C277.457 14.9744 277.915 14.9091 278.335 14.7784C278.761 14.6477 279.139 14.4574 279.469 14.2074C279.798 13.9517 280.071 13.642 280.287 13.2784C280.508 12.9148 280.662 12.5 280.747 12.0341L284.48 12.0511C284.383 12.8523 284.142 13.625 283.756 14.3693C283.375 15.108 282.861 15.7699 282.213 16.3551C281.571 16.9347 280.804 17.3949 279.912 17.7358C279.025 18.071 278.023 18.2386 276.903 18.2386C275.346 18.2386 273.954 17.8864 272.727 17.1818C271.506 16.4773 270.54 15.4574 269.829 14.1222C269.125 12.7869 268.773 11.1705 268.773 9.27273C268.773 7.36932 269.131 5.75 269.846 4.41477C270.562 3.07955 271.534 2.0625 272.761 1.36364C273.988 0.659091 275.369 0.306818 276.903 0.306818C277.915 0.306818 278.852 0.448863 279.716 0.732954C280.585 1.01705 281.355 1.43182 282.025 1.97727C282.696 2.51704 283.241 3.17898 283.662 3.96307C284.088 4.74716 284.361 5.64489 284.48 6.65625ZM292.221 3.58807V0.545454H306.557V3.58807H301.213V18H297.565V3.58807H292.221ZM324.146 5.56534C324.078 4.87784 323.785 4.34375 323.268 3.96307C322.751 3.58239 322.05 3.39204 321.163 3.39204C320.561 3.39204 320.053 3.47727 319.638 3.64773C319.223 3.8125 318.905 4.04261 318.683 4.33807C318.467 4.63352 318.359 4.96875 318.359 5.34375C318.348 5.65625 318.413 5.92898 318.555 6.16193C318.703 6.39489 318.905 6.59659 319.16 6.76705C319.416 6.93182 319.712 7.0767 320.047 7.2017C320.382 7.32102 320.74 7.4233 321.121 7.50852L322.689 7.88352C323.45 8.05398 324.149 8.28125 324.785 8.56534C325.422 8.84943 325.973 9.19886 326.439 9.61364C326.905 10.0284 327.266 10.517 327.521 11.0795C327.783 11.642 327.916 12.2869 327.922 13.0142C327.916 14.0824 327.643 15.0085 327.104 15.7926C326.57 16.571 325.797 17.1761 324.785 17.608C323.78 18.0341 322.567 18.2472 321.146 18.2472C319.737 18.2472 318.51 18.0312 317.464 17.5994C316.425 17.1676 315.612 16.5284 315.027 15.6818C314.447 14.8295 314.143 13.7756 314.115 12.5199H317.686C317.726 13.1051 317.893 13.5937 318.189 13.9858C318.49 14.3722 318.891 14.6648 319.391 14.8636C319.896 15.0568 320.467 15.1534 321.104 15.1534C321.729 15.1534 322.271 15.0625 322.731 14.8807C323.197 14.6989 323.558 14.446 323.814 14.1222C324.07 13.7983 324.197 13.4261 324.197 13.0057C324.197 12.6136 324.081 12.2841 323.848 12.017C323.621 11.75 323.285 11.5227 322.842 11.3352C322.405 11.1477 321.868 10.9773 321.231 10.8239L319.331 10.3466C317.859 9.98864 316.697 9.42898 315.845 8.66761C314.993 7.90625 314.57 6.88068 314.575 5.59091C314.57 4.53409 314.851 3.6108 315.419 2.82102C315.993 2.03125 316.78 1.41477 317.78 0.971591C318.78 0.528409 319.916 0.306818 321.189 0.306818C322.484 0.306818 323.615 0.528409 324.581 0.971591C325.553 1.41477 326.308 2.03125 326.848 2.82102C327.388 3.6108 327.666 4.52557 327.683 5.56534H324.146ZM385.509 6.65625H381.776C381.708 6.1733 381.568 5.74432 381.358 5.36932C381.148 4.98864 380.878 4.66477 380.548 4.39773C380.219 4.13068 379.838 3.92614 379.406 3.78409C378.98 3.64205 378.517 3.57102 378.017 3.57102C377.114 3.57102 376.327 3.79545 375.656 4.24432C374.986 4.6875 374.466 5.33523 374.097 6.1875C373.727 7.03409 373.543 8.0625 373.543 9.27273C373.543 10.517 373.727 11.5625 374.097 12.4091C374.472 13.2557 374.995 13.8949 375.665 14.3267C376.335 14.7585 377.111 14.9744 377.992 14.9744C378.486 14.9744 378.943 14.9091 379.364 14.7784C379.79 14.6477 380.168 14.4574 380.497 14.2074C380.827 13.9517 381.1 13.642 381.316 13.2784C381.537 12.9148 381.691 12.5 381.776 12.0341L385.509 12.0511C385.412 12.8523 385.171 13.625 384.784 14.3693C384.404 15.108 383.889 15.7699 383.242 16.3551C382.6 16.9347 381.833 17.3949 380.941 17.7358C380.054 18.071 379.051 18.2386 377.932 18.2386C376.375 18.2386 374.983 17.8864 373.756 17.1818C372.534 16.4773 371.568 15.4574 370.858 14.1222C370.154 12.7869 369.801 11.1705 369.801 9.27273C369.801 7.36932 370.159 5.75 370.875 4.41477C371.591 3.07955 372.563 2.0625 373.79 1.36364C375.017 0.659091 376.398 0.306818 377.932 0.306818C378.943 0.306818 379.881 0.448863 380.745 0.732954C381.614 1.01705 382.384 1.43182 383.054 1.97727C383.725 2.51704 384.27 3.17898 384.691 3.96307C385.117 4.74716 385.389 5.64489 385.509 6.65625ZM393.915 18V0.545454H400.801C402.12 0.545454 403.245 0.78125 404.176 1.25284C405.114 1.71875 405.827 2.38068 406.316 3.23864C406.81 4.09091 407.057 5.09375 407.057 6.24716C407.057 7.40625 406.807 8.40341 406.307 9.23864C405.807 10.0682 405.083 10.7045 404.134 11.1477C403.191 11.5909 402.049 11.8125 400.708 11.8125H396.097V8.84659H400.111C400.816 8.84659 401.401 8.75 401.867 8.55682C402.333 8.36364 402.679 8.07386 402.906 7.6875C403.139 7.30114 403.256 6.82102 403.256 6.24716C403.256 5.66761 403.139 5.17898 402.906 4.78125C402.679 4.38352 402.33 4.08239 401.858 3.87784C401.392 3.66761 400.804 3.5625 400.094 3.5625H397.605V18H393.915ZM403.341 10.0568L407.679 18H403.605L399.361 10.0568H403.341ZM415.425 18V0.545454H427.186V3.58807H419.115V7.74716H426.581V10.7898H419.115V14.9574H427.22V18H415.425ZM438.889 18H434.934L440.96 0.545454H445.716L451.733 18H447.778L443.406 4.53409H443.27L438.889 18ZM438.642 11.1392H447.983V14.0199H438.642V11.1392ZM456.796 3.58807V0.545454H471.131V3.58807H465.787V18H462.14V3.58807H456.796ZM482.942 0.545454V18H479.252V0.545454H482.942ZM494.892 0.545454L499.111 13.8068H499.273L503.5 0.545454H507.591L501.574 18H496.818L490.792 0.545454H494.892ZM515.452 18V0.545454H527.213V3.58807H519.142V7.74716H526.608V10.7898H519.142V14.9574H527.247V18H515.452ZM551.15 18L546.156 0.545454H550.187L553.077 12.6733H553.222L556.409 0.545454H559.861L563.04 12.6989H563.193L566.082 0.545454H570.114L565.119 18H561.523L558.199 6.58807H558.062L554.747 18H551.15ZM577.849 18V0.545454H584.735C586.053 0.545454 587.178 0.78125 588.11 1.25284C589.048 1.71875 589.761 2.38068 590.249 3.23864C590.744 4.09091 590.991 5.09375 590.991 6.24716C590.991 7.40625 590.741 8.40341 590.241 9.23864C589.741 10.0682 589.016 10.7045 588.067 11.1477C587.124 11.5909 585.982 11.8125 584.641 11.8125H580.031V8.84659H584.045C584.749 8.84659 585.335 8.75 585.8 8.55682C586.266 8.36364 586.613 8.07386 586.84 7.6875C587.073 7.30114 587.19 6.82102 587.19 6.24716C587.19 5.66761 587.073 5.17898 586.84 4.78125C586.613 4.38352 586.263 4.08239 585.792 3.87784C585.326 3.66761 584.738 3.5625 584.028 3.5625H581.539V18H577.849ZM587.275 10.0568L591.613 18H587.539L583.295 10.0568H587.275ZM603.049 0.545454V18H599.359V0.545454H603.049ZM611.181 3.58807V0.545454H625.516V3.58807H620.172V18H616.524V3.58807H611.181ZM637.327 0.545454V18H633.637V0.545454H637.327ZM660.723 0.545454V18H657.535L649.941 7.0142H649.813V18H646.123V0.545454H649.362L656.896 11.5227H657.049V0.545454H660.723ZM681.105 6.1875C680.986 5.77273 680.819 5.40625 680.603 5.08807C680.387 4.7642 680.122 4.49148 679.81 4.26989C679.503 4.04261 679.151 3.86932 678.753 3.75C678.361 3.63068 677.926 3.57102 677.449 3.57102C676.557 3.57102 675.773 3.79261 675.097 4.23579C674.426 4.67898 673.904 5.32386 673.529 6.17045C673.154 7.01136 672.966 8.03977 672.966 9.25568C672.966 10.4716 673.151 11.5057 673.52 12.358C673.89 13.2102 674.412 13.8608 675.088 14.3097C675.765 14.7528 676.563 14.9744 677.483 14.9744C678.319 14.9744 679.032 14.8267 679.622 14.5312C680.219 14.2301 680.674 13.8068 680.986 13.2614C681.304 12.7159 681.463 12.071 681.463 11.3267L682.213 11.4375H677.713V8.65909H685.017V10.858C685.017 12.392 684.694 13.7102 684.046 14.8125C683.398 15.9091 682.506 16.7557 681.37 17.3523C680.233 17.9432 678.932 18.2386 677.466 18.2386C675.83 18.2386 674.392 17.8778 673.154 17.1562C671.915 16.429 670.949 15.3977 670.256 14.0625C669.569 12.7216 669.225 11.1307 669.225 9.28977C669.225 7.875 669.429 6.61364 669.838 5.50568C670.253 4.39205 670.833 3.44886 671.577 2.67614C672.321 1.90341 673.188 1.31534 674.176 0.911931C675.165 0.508522 676.236 0.306818 677.39 0.306818C678.378 0.306818 679.299 0.451704 680.151 0.741477C681.003 1.02557 681.759 1.42898 682.418 1.9517C683.083 2.47443 683.625 3.09659 684.046 3.81818C684.466 4.53409 684.736 5.32386 684.855 6.1875H681.105ZM742.894 6.65625H739.161C739.093 6.1733 738.954 5.74432 738.743 5.36932C738.533 4.98864 738.263 4.66477 737.934 4.39773C737.604 4.13068 737.224 3.92614 736.792 3.78409C736.366 3.64205 735.903 3.57102 735.403 3.57102C734.499 3.57102 733.712 3.79545 733.042 4.24432C732.371 4.6875 731.851 5.33523 731.482 6.1875C731.113 7.03409 730.928 8.0625 730.928 9.27273C730.928 10.517 731.113 11.5625 731.482 12.4091C731.857 13.2557 732.38 13.8949 733.05 14.3267C733.721 14.7585 734.496 14.9744 735.377 14.9744C735.871 14.9744 736.329 14.9091 736.749 14.7784C737.175 14.6477 737.553 14.4574 737.883 14.2074C738.212 13.9517 738.485 13.642 738.701 13.2784C738.922 12.9148 739.076 12.5 739.161 12.0341L742.894 12.0511C742.797 12.8523 742.556 13.625 742.17 14.3693C741.789 15.108 741.275 15.7699 740.627 16.3551C739.985 16.9347 739.218 17.3949 738.326 17.7358C737.44 18.071 736.437 18.2386 735.317 18.2386C733.761 18.2386 732.368 17.8864 731.141 17.1818C729.92 16.4773 728.954 15.4574 728.243 14.1222C727.539 12.7869 727.187 11.1705 727.187 9.27273C727.187 7.36932 727.545 5.75 728.261 4.41477C728.976 3.07955 729.948 2.0625 731.175 1.36364C732.403 0.659091 733.783 0.306818 735.317 0.306818C736.329 0.306818 737.266 0.448863 738.13 0.732954C738.999 1.01705 739.769 1.43182 740.44 1.97727C741.11 2.51704 741.655 3.17898 742.076 3.96307C742.502 4.74716 742.775 5.64489 742.894 6.65625ZM767.34 9.27273C767.34 11.1761 766.979 12.7955 766.258 14.1307C765.542 15.4659 764.565 16.4858 763.326 17.1903C762.093 17.8892 760.707 18.2386 759.167 18.2386C757.616 18.2386 756.224 17.8864 754.991 17.1818C753.758 16.4773 752.783 15.4574 752.067 14.1222C751.352 12.7869 750.994 11.1705 750.994 9.27273C750.994 7.36932 751.352 5.75 752.067 4.41477C752.783 3.07955 753.758 2.0625 754.991 1.36364C756.224 0.659091 757.616 0.306818 759.167 0.306818C760.707 0.306818 762.093 0.659091 763.326 1.36364C764.565 2.0625 765.542 3.07955 766.258 4.41477C766.979 5.75 767.34 7.36932 767.34 9.27273ZM763.599 9.27273C763.599 8.03977 763.414 7 763.045 6.15341C762.681 5.30682 762.167 4.66477 761.502 4.22727C760.837 3.78977 760.059 3.57102 759.167 3.57102C758.275 3.57102 757.496 3.78977 756.832 4.22727C756.167 4.66477 755.65 5.30682 755.28 6.15341C754.917 7 754.735 8.03977 754.735 9.27273C754.735 10.5057 754.917 11.5455 755.28 12.392C755.65 13.2386 756.167 13.8807 756.832 14.3182C757.496 14.7557 758.275 14.9744 759.167 14.9744C760.059 14.9744 760.837 14.7557 761.502 14.3182C762.167 13.8807 762.681 13.2386 763.045 12.392C763.414 11.5455 763.599 10.5057 763.599 9.27273ZM790.433 0.545454V18H787.246L779.652 7.0142H779.524V18H775.834V0.545454H779.072L786.607 11.5227H786.76V0.545454H790.433ZM798.577 3.58807V0.545454H812.913V3.58807H807.569V18H803.921V3.58807H798.577ZM821.909 18H817.955L823.98 0.545454H828.736L834.753 18H830.798L826.426 4.53409H826.29L821.909 18ZM821.662 11.1392H831.003V14.0199H821.662V11.1392ZM857.194 6.65625H853.461C853.393 6.1733 853.254 5.74432 853.043 5.36932C852.833 4.98864 852.563 4.66477 852.234 4.39773C851.904 4.13068 851.524 3.92614 851.092 3.78409C850.666 3.64205 850.203 3.57102 849.703 3.57102C848.799 3.57102 848.012 3.79545 847.342 4.24432C846.671 4.6875 846.151 5.33523 845.782 6.1875C845.413 7.03409 845.228 8.0625 845.228 9.27273C845.228 10.517 845.413 11.5625 845.782 12.4091C846.157 13.2557 846.68 13.8949 847.35 14.3267C848.021 14.7585 848.796 14.9744 849.677 14.9744C850.171 14.9744 850.629 14.9091 851.049 14.7784C851.475 14.6477 851.853 14.4574 852.183 14.2074C852.512 13.9517 852.785 13.642 853.001 13.2784C853.222 12.9148 853.376 12.5 853.461 12.0341L857.194 12.0511C857.097 12.8523 856.856 13.625 856.47 14.3693C856.089 15.108 855.575 15.7699 854.927 16.3551C854.285 16.9347 853.518 17.3949 852.626 17.7358C851.739 18.071 850.737 18.2386 849.617 18.2386C848.06 18.2386 846.668 17.8864 845.441 17.1818C844.22 16.4773 843.254 15.4574 842.543 14.1222C841.839 12.7869 841.487 11.1705 841.487 9.27273C841.487 7.36932 841.845 5.75 842.56 4.41477C843.276 3.07955 844.248 2.0625 845.475 1.36364C846.703 0.659091 848.083 0.306818 849.617 0.306818C850.629 0.306818 851.566 0.448863 852.43 0.732954C853.299 1.01705 854.069 1.43182 854.739 1.97727C855.41 2.51704 855.955 3.17898 856.376 3.96307C856.802 4.74716 857.075 5.64489 857.194 6.65625ZM864.936 3.58807V0.545454H879.271V3.58807H873.927V18H870.279V3.58807H864.936Z" fill="white"/>
</svg>
