<svg width="714" height="263" viewBox="0 0 714 263" fill="none" xmlns="http://www.w3.org/2000/svg">
<path d="M0.090909 95V1.90909H19.7727V40.3182H59.7273V1.90909H79.3636V95H59.7273V56.5455H19.7727V95H0.090909ZM95.5909 95V1.90909H158.318V18.1364H115.273V40.3182H155.091V56.5455H115.273V78.7727H158.5V95H95.5909ZM173.966 95V1.90909H193.648V78.7727H233.557V95H173.966ZM246.591 95V1.90909H266.273V78.7727H306.182V95H246.591ZM401.136 48.4545C401.136 58.6061 399.212 67.2424 395.364 74.3636C391.545 81.4848 386.333 86.9242 379.727 90.6818C373.152 94.4091 365.758 96.2727 357.545 96.2727C349.273 96.2727 341.848 94.3939 335.273 90.6364C328.697 86.8788 323.5 81.4394 319.682 74.3182C315.864 67.197 313.955 58.5758 313.955 48.4545C313.955 38.303 315.864 29.6667 319.682 22.5455C323.5 15.4242 328.697 10 335.273 6.27273C341.848 2.51515 349.273 0.63636 357.545 0.63636C365.758 0.63636 373.152 2.51515 379.727 6.27273C386.333 10 391.545 15.4242 395.364 22.5455C399.212 29.6667 401.136 38.303 401.136 48.4545ZM381.182 48.4545C381.182 41.8788 380.197 36.3333 378.227 31.8182C376.288 27.303 373.545 23.8788 370 21.5455C366.455 19.2121 362.303 18.0455 357.545 18.0455C352.788 18.0455 348.636 19.2121 345.091 21.5455C341.545 23.8788 338.788 27.303 336.818 31.8182C334.879 36.3333 333.909 41.8788 333.909 48.4545C333.909 55.0303 334.879 60.5758 336.818 65.0909C338.788 69.6061 341.545 73.0303 345.091 75.3636C348.636 77.697 352.788 78.8636 357.545 78.8636C362.303 78.8636 366.455 77.697 370 75.3636C373.545 73.0303 376.288 69.6061 378.227 65.0909C380.197 60.5758 381.182 55.0303 381.182 48.4545ZM430.523 82.2727L430.023 87.2727C429.629 91.2727 428.871 95.2576 427.75 99.2273C426.659 103.227 425.508 106.848 424.295 110.091C423.114 113.333 422.159 115.879 421.432 117.727H408.886C409.341 115.939 409.962 113.439 410.75 110.227C411.538 107.045 412.28 103.47 412.977 99.5C413.674 95.5303 414.114 91.4848 414.295 87.3636L414.523 82.2727H430.523ZM21.9425 160.636V261H0.723011V160.636H21.9425ZM56.5037 160.636V171.222C56.5037 174.227 55.9157 177.298 54.7395 180.435C53.5961 183.538 52.0605 186.479 50.133 189.256C48.2054 192 46.0982 194.336 43.8113 196.263L34.5982 190.824C36.2317 188.243 37.6692 185.384 38.9107 182.248C40.1848 179.112 40.8219 175.469 40.8219 171.32V160.636H56.5037ZM70.8011 160.636H96.9702L124.609 228.068H125.786L153.425 160.636H179.594V261H159.011V195.675H158.178L132.205 260.51H118.19L92.2166 195.43H91.3835V261H70.8011V160.636ZM283.461 189.501C283.069 185.548 281.387 182.477 278.414 180.288C275.441 178.099 271.406 177.004 266.309 177.004C262.846 177.004 259.922 177.494 257.537 178.474C255.152 179.422 253.323 180.745 252.049 182.444C250.807 184.143 250.186 186.07 250.186 188.227C250.121 190.023 250.497 191.592 251.314 192.931C252.163 194.271 253.323 195.43 254.793 196.411C256.263 197.358 257.962 198.191 259.89 198.91C261.817 199.596 263.875 200.184 266.064 200.674L275.081 202.83C279.459 203.81 283.478 205.117 287.137 206.751C290.796 208.384 293.965 210.393 296.644 212.778C299.323 215.163 301.397 217.973 302.868 221.207C304.37 224.442 305.138 228.15 305.171 232.332C305.138 238.474 303.57 243.799 300.466 248.308C297.395 252.783 292.952 256.263 287.137 258.746C281.354 261.196 274.379 262.421 266.211 262.421C258.109 262.421 251.052 261.18 245.041 258.697C239.062 256.214 234.39 252.538 231.025 247.67C227.693 242.77 225.945 236.71 225.782 229.489H246.315C246.544 232.854 247.507 235.664 249.206 237.918C250.938 240.14 253.241 241.822 256.116 242.966C259.024 244.077 262.307 244.632 265.966 244.632C269.56 244.632 272.68 244.109 275.326 243.064C278.005 242.018 280.08 240.565 281.55 238.702C283.02 236.84 283.755 234.7 283.755 232.283C283.755 230.028 283.086 228.134 281.746 226.598C280.439 225.062 278.512 223.756 275.963 222.678C273.448 221.599 270.36 220.619 266.701 219.737L255.773 216.993C247.311 214.935 240.63 211.717 235.73 207.339C230.829 202.961 228.395 197.064 228.428 189.648C228.395 183.571 230.012 178.262 233.279 173.721C236.579 169.18 241.104 165.635 246.854 163.087C252.604 160.538 259.138 159.264 266.456 159.264C273.905 159.264 280.407 160.538 285.961 163.087C291.547 165.635 295.892 169.18 298.996 173.721C302.1 178.262 303.701 183.522 303.799 189.501H283.461ZM319.444 261V160.636H387.072V178.131H340.663V202.046H383.592V219.541H340.663V243.505H387.268V261H319.444ZM403.942 261V160.636H425.161V243.505H468.188V261H403.942ZM503.46 160.636V261H482.241V160.636H503.46ZM604.865 160.636V261H586.537L542.873 197.832H542.138V261H520.918V160.636H539.54L582.862 223.756H583.744V160.636H604.865ZM639.696 261H616.957L651.604 160.636H678.949L713.547 261H690.809L665.669 183.571H664.885L639.696 261ZM638.275 221.55H691.985V238.114H638.275V221.55Z" fill="white"/>
</svg>
